<svg width="118" height="20" viewBox="0 0 118 20" fill="none" xmlns="http://www.w3.org/2000/svg">
<g clip-path="url(#clip0_1419_286)">
<path d="M0 0.336304H5.13441C10.8868 0.336304 15.9664 2.32388 15.9664 9.96867C15.9664 17.6171 10.8868 19.6047 5.13441 19.6047H0V0.336304Z" fill="#9E9E9E"/>
<path d="M3.76318 16.5682H5.85864C9.00365 16.5682 12.0389 14.1647 12.0389 9.96872C12.0389 5.77274 9.00365 3.37292 5.85864 3.37292H3.76318V16.5682Z" fill="#EEEEEE"/>
<path d="M17.4692 0.336389H21.2323V19.6048H17.4692V0.336389ZM33.3625 5.4231C32.0679 4.60967 30.6746 3.74839 29.2009 3.56067C27.8514 3.38768 26.4142 3.79624 26.4142 5.72124C26.4142 9.06331 34.6388 7.6536 34.6388 14.1132C34.6388 18.335 31.3621 20.363 27.5954 19.9397C25.5548 19.7079 24.3736 19.0858 22.7463 17.9816V14.0727C24.0372 14.7905 25.9278 16.1192 27.3833 16.3842C28.9814 16.6713 30.7148 16.156 30.7148 14.415C30.7148 10.7417 22.4903 12.2618 22.4903 5.88687C22.4903 1.58046 25.745 0.00512695 29.0473 0.00512695C30.66 0.00512695 32.1045 0.627164 33.3625 1.73137V5.4231ZM60.3437 0.00512695C66.2315 0.00512695 70.0494 4.09069 70.0494 9.91723C70.0494 15.7401 66.2827 19.9397 60.3437 19.9397C54.3243 19.9397 50.4662 15.8247 50.4662 9.91723C50.4662 4.00604 54.3792 0.00512695 60.3437 0.00512695ZM68.7804 0.336389H72.8104L76.9904 10.5172L80.8924 0.336389H84.798L77.4511 19.6048H76.0871L68.7804 0.336389ZM85.7781 0.336389H96.8514V3.37296H89.5411V8.12105H96.2334V11.1576H89.5411V16.5682H96.9063V19.6048H85.7781V0.336389ZM97.9083 0.336389H101.968C106.001 0.336389 110.81 0.196523 110.81 5.55193C110.81 7.81555 109.333 9.6927 106.937 10.024V10.0792C107.958 10.1602 108.55 11.2128 108.927 12.0667L111.937 19.6011H107.746L105.489 13.5869C104.952 12.1514 104.469 11.5993 102.882 11.5993H101.671V19.6048H97.9083V0.336389V0.336389Z" fill="#9E9E9E"/>
<path d="M101.671 8.56272H102.907C104.762 8.56272 106.886 8.28667 106.886 5.88317C106.886 3.56434 104.791 3.36926 102.907 3.36926H101.671V8.56272Z" fill="#EEEEEE"/>
<path d="M49.5158 17.6798C48.6016 18.8724 46.3196 19.6048 44.78 19.7152C38.9471 20.1275 35.0269 16.8333 35.0269 10.3184C35.0269 3.72263 38.4425 -0.101602 44.8056 0.196534C46.0417 0.255425 48.064 0.675023 49.4317 1.80131V5.51881C47.8373 4.51766 46.1843 3.80729 44.7837 3.7484C40.9146 3.59013 38.9508 6.09668 38.9508 10.0424C38.9508 13.9623 40.783 16.167 44.7874 16.0161C46.3233 15.9573 48.682 14.6874 49.5122 13.9881V17.6798H49.5158Z" fill="#9E9E9E"/>
<path d="M116.35 3.57902C117.261 3.57902 118 2.83581 118 1.91902C118 1.00224 117.261 0.259033 116.35 0.259033C115.44 0.259033 114.701 1.00224 114.701 1.91902C114.701 2.83581 115.44 3.57902 116.35 3.57902Z" fill="#9E9E9E"/>
<path d="M117.598 1.91899C117.598 1.14237 117.042 0.579224 116.351 0.579224C115.659 0.579224 115.104 1.13869 115.104 1.91899C115.104 2.69562 115.659 3.25509 116.351 3.25509C117.038 3.25509 117.598 2.69194 117.598 1.91899Z" fill="#EEEEEE"/>
<path d="M115.715 0.969482H116.409C116.859 0.969482 117.097 1.12407 117.097 1.52159C117.097 1.84181 116.914 2.00008 116.611 2.02584L117.112 2.85032H116.757L116.27 2.04056H116.058V2.85032H115.711V0.969482H115.715Z" fill="#9E9E9E"/>
<path d="M116.062 1.77554H116.369C116.574 1.77554 116.753 1.74609 116.753 1.49581C116.753 1.27129 116.552 1.23816 116.373 1.23816H116.062V1.77554Z" fill="#EEEEEE"/>
</g>
<defs>
<clipPath id="clip0_1419_286">
<rect width="118" height="20" fill="white"/>
</clipPath>
</defs>
</svg>
