<svg width="62" height="29" viewBox="0 0 62 29" fill="none" xmlns="http://www.w3.org/2000/svg">
<path d="M12.7788 8.88346C13.3753 8.68657 14.0116 8.58157 14.6718 8.58157C17.5617 8.58157 19.9744 10.6134 20.5258 13.3147L24.6221 12.4878C23.6835 7.89903 19.5846 4.44434 14.6718 4.44434C13.545 4.44434 12.4659 4.62547 11.4531 4.96149L12.7788 8.88346Z" fill="#EEEEEE"/>
<path d="M7.94549 22.0249L10.7161 18.9246C9.48058 17.8405 8.7011 16.2575 8.7011 14.4934C8.7011 12.7319 9.48058 11.149 10.7161 10.0674L7.94549 6.96448C5.84566 8.80733 4.52002 11.4981 4.52002 14.4934C4.52002 17.4913 5.84566 20.1821 7.94549 22.0249" fill="#EEEEEE"/>
<path d="M20.5258 15.6801C19.9717 18.3787 17.5617 20.4079 14.6744 20.4079C14.0116 20.4079 13.3727 20.3029 12.7788 20.1034L11.4531 24.0306C12.4659 24.364 13.5476 24.5452 14.6744 24.5452C19.582 24.5452 23.6782 21.0957 24.6221 16.5122L20.5258 15.6801Z" fill="#EEEEEE"/>
<path d="M28.2043 19.0533C28.0691 18.838 27.8888 18.4941 27.7775 18.2395C27.1279 16.7484 27.0987 15.2048 27.6449 13.7243C28.2468 12.0993 29.3974 10.8576 30.8848 10.2223C32.7539 9.42689 34.8193 9.58177 36.6116 10.6345C37.749 11.2802 38.555 12.2778 39.1674 13.6901C39.2443 13.8713 39.3132 14.0629 39.3822 14.2283L28.2043 19.0533ZM31.9374 12.6191C30.6091 13.1835 29.925 14.4173 30.0682 15.8611L35.6889 13.4644C34.7212 12.3408 33.4645 11.968 31.9374 12.6191ZM36.3889 17.8326C36.3862 17.8326 36.3862 17.8352 36.3862 17.8352L36.2696 17.7565C35.9328 18.2946 35.4105 18.733 34.7504 19.0166C33.4937 19.5573 32.3297 19.4182 31.4919 18.691L31.415 18.8065C31.415 18.8065 31.415 18.8039 31.4124 18.8039L29.986 20.9172C30.3413 21.1613 30.7204 21.3661 31.1181 21.5314C32.693 22.1799 34.305 22.1484 35.8931 21.4658C37.0411 20.9723 37.9425 20.2215 38.5576 19.2686L36.3889 17.8326ZM43.2875 7.11414V18.859L45.1328 19.5993L44.0856 22.0197L42.0494 21.1797C41.5933 20.9828 41.2805 20.6835 41.0472 20.3449C40.8218 20.001 40.6548 19.5258 40.6548 18.8905V7.11414H43.2875ZM48.0651 15.869C48.0651 14.8688 48.5132 13.971 49.2185 13.362L47.3254 11.2724C46.0422 12.3959 45.2336 14.0366 45.2336 15.8638C45.2309 17.6935 46.0396 19.3368 47.3201 20.4604L49.2105 18.3708C48.5079 17.7591 48.0651 16.8666 48.0651 15.869ZM51.427 19.2003C51.0558 19.2003 50.6952 19.1373 50.3612 19.0271L49.4571 21.6863C50.0748 21.8911 50.735 22.004 51.4243 22.004C54.4203 22.0066 56.9205 19.9012 57.5011 17.1054L54.7225 16.5437C54.407 18.0636 53.0522 19.2029 51.427 19.2003ZM51.4349 9.73403C50.7482 9.73403 50.0881 9.84429 49.4703 10.0464L50.3665 12.7083C50.7032 12.5981 51.0611 12.5377 51.4323 12.5377C53.0602 12.5403 54.4176 13.6849 54.7252 15.2075L57.5037 14.6509C56.9337 11.8499 54.4335 9.73666 51.4349 9.73403Z" fill="#9E9E9E"/>
</svg>
